<?xml version="1.0" encoding="utf-8"?>
<!-- Generator: Adobe Illustrator 26.4.1, SVG Export Plug-In . SVG Version: 6.00 Build 0)  -->
<svg version="1.1" id="Layer_1" xmlns="http://www.w3.org/2000/svg" xmlns:xlink="http://www.w3.org/1999/xlink" x="0px" y="0px"
	 viewBox="0 0 60.28 48.05" style="enable-background:new 0 0 60.28 48.05;" xml:space="preserve">
<style type="text/css">
	.st0{display:none;fill:#004B9A;}
	.st1{fill:#FFFFFF;}
	.st2{fill:#CD2623;}
	.st3{display:none;fill:#B3B3B2;}
	.st4{fill:#CD2424;}
</style>
<g>
	<rect x="0.11" class="st0" width="60.17" height="48.05"/>
	<rect x="20.35" class="st1" width="19.59" height="19.57"/>
	<path class="st2" d="M34.14,0l5.03,19.57h0.76V0H34.14z M28.75,11.03l-0.69,8.54h4.16l-0.69-8.54H28.75z M30.68,0H29.6l-0.68,8.62
		h2.44L30.68,0z M20.35,19.57h0.69L26.12,0h-5.78V19.57z"/>
	<g>
		<path class="st3" d="M8.92,3.94c1.53,0,2.6,1.1,2.6,2.67c0,1.56-1.04,2.6-2.6,2.6C8.35,9.21,7.72,9.18,7.1,9V3.94H8.92z M0,0
			v20.24h7.1v-7.21h0c4.7,0.52,7.81-0.15,9.81-2.11c1.18-1.17,1.79-2.62,1.79-4.32c0-4.34-4.01-6.61-7.98-6.61H0z"/>
		<path class="st1" d="M6.5,9.31L5.96,9.15V2.59H8.6c1.99,0,3.44,1.48,3.44,3.52c0,2.03-1.41,3.45-3.44,3.45
			C7.95,9.56,7.24,9.53,6.5,9.31 M0.11,0v19.52h5.85v-7.59l0.86,0.12c5.63,0.63,8.14-0.61,9.53-1.99c1.08-1.06,1.63-2.39,1.63-3.95
			C17.97,2.1,14.19,0,10.46,0H0.11z"/>
	</g>
	<polygon class="st3" points="59.32,4.46 54.23,4.46 54.23,20.18 47.13,20.18 47.13,4.46 42,4.46 41.05,0 60.28,0 	"/>
	<g>
		<path class="st1" d="M41.95,0c0.21,0.98,0.52,2.43,0.67,3.13c0.97,0,5.55-0.01,5.55-0.01v16.33h5.95V3.13c0,0,4.53,0.01,5.5,0.01
			c0.15-0.7,0.46-2.15,0.67-3.13H41.95z"/>
	</g>
	<rect x="0.08" y="21.09" class="st4" width="60.11" height="19.37"/>
	<g>
		<g>
			<g>
				<path class="st1" d="M11.99,25.55c0.39,0,0.54-0.27,0.54-0.51c0-0.27-0.17-0.48-0.54-0.48h-0.3v0.99H11.99z M11.99,24.06
					c1.15,0,1.22,0.79,1.22,1c0,0.42-0.29,0.99-1.11,0.99h-0.41v1.2h-0.65v-3.18H11.99z"/>
				<path class="st1" d="M15.19,25.65c0,1.08,0.63,1.17,0.88,1.17c0.24,0,0.88-0.09,0.88-1.17c0-1.08-0.63-1.18-0.88-1.18
					C15.82,24.48,15.19,24.58,15.19,25.65 M17.62,25.65c0,1.15-0.78,1.63-1.56,1.63c-0.79,0-1.56-0.48-1.56-1.63
					c0-1.16,0.77-1.63,1.56-1.63C16.85,24.03,17.62,24.5,17.62,25.65"/>
				<path class="st1" d="M21.42,27.14c-0.28,0.1-0.57,0.14-0.82,0.14c-0.79,0-1.65-0.45-1.65-1.61c0-1.1,0.77-1.64,1.77-1.64
					c0.25,0,0.46,0.03,0.7,0.11l-0.03,0.55c-0.19-0.08-0.39-0.12-0.63-0.12c-0.71,0-1.14,0.45-1.14,1.1c0,0.76,0.52,1.08,1.09,1.08
					c0.28,0,0.5-0.07,0.66-0.14L21.42,27.14z"/>
				<path class="st1" d="M25.19,27.14c-0.28,0.1-0.56,0.14-0.82,0.14c-0.79,0-1.65-0.45-1.65-1.61c0-1.1,0.77-1.64,1.77-1.64
					c0.25,0,0.47,0.03,0.7,0.11l-0.03,0.55c-0.18-0.08-0.39-0.12-0.63-0.12c-0.71,0-1.13,0.45-1.13,1.1c0,0.76,0.52,1.08,1.09,1.08
					c0.28,0,0.51-0.07,0.67-0.14L25.19,27.14z"/>
			</g>
			<polygon class="st1" points="27.25,24.06 27.25,25.7 27.23,26.47 27.25,26.47 27.47,26.01 28.59,24.06 29.36,24.06 29.36,27.25 
				28.72,27.25 28.72,25.6 28.73,24.84 28.72,24.84 28.5,25.32 27.37,27.25 26.6,27.25 26.6,24.06 			"/>
			<g>
				<path class="st1" d="M33.09,23.31c-0.18,0.46-0.57,0.53-0.84,0.53c-0.27,0-0.66-0.07-0.84-0.53l0.33-0.18
					c0.11,0.28,0.4,0.3,0.51,0.3c0.11,0,0.39-0.01,0.51-0.3L33.09,23.31z M31.55,24.06v1.63l-0.02,0.77h0.02l0.22-0.46l1.12-1.94
					h0.77v3.18h-0.64V25.6l0.01-0.77h-0.01l-0.21,0.48l-1.12,1.93H30.9v-3.18H31.55z"/>
				<path class="st1" d="M37.57,27.14c-0.28,0.1-0.57,0.14-0.82,0.14c-0.79,0-1.65-0.45-1.65-1.61c0-1.1,0.77-1.64,1.77-1.64
					c0.25,0,0.46,0.03,0.71,0.11l-0.03,0.55c-0.19-0.08-0.39-0.12-0.63-0.12c-0.71,0-1.14,0.45-1.14,1.1c0,0.76,0.52,1.08,1.09,1.08
					c0.28,0,0.51-0.07,0.67-0.14L37.57,27.14z"/>
			</g>
			<polygon class="st1" points="39.63,24.06 39.63,25.42 39.64,25.42 40.79,24.06 41.55,24.06 40.23,25.51 41.64,27.25 40.82,27.25 
				39.64,25.67 39.63,25.67 39.63,27.25 38.98,27.25 38.98,24.06 			"/>
			<g>
				<path class="st1" d="M43.46,25.65c0,1.08,0.64,1.17,0.88,1.17c0.24,0,0.88-0.09,0.88-1.17c0-1.08-0.64-1.18-0.88-1.18
					C44.1,24.48,43.46,24.58,43.46,25.65 M45.9,25.65c0,1.15-0.77,1.63-1.56,1.63c-0.79,0-1.56-0.48-1.56-1.63
					c0-1.16,0.77-1.63,1.56-1.63C45.13,24.03,45.9,24.5,45.9,25.65"/>
			</g>
			<polygon class="st1" points="49.23,24.06 49.23,24.63 47.98,24.63 47.98,25.34 49.12,25.34 49.12,25.87 47.98,25.87 47.98,26.68 
				49.23,26.68 49.23,27.25 47.33,27.25 47.33,24.06 			"/>
		</g>
		<g>
			<path class="st1" d="M6.46,31.16l-0.47-1.3H5.98l-0.44,1.3H6.46z M6.38,29.22l1.26,3.18H6.91l-0.27-0.72H5.33L5.07,32.4H4.37
				l1.27-3.18H6.38z"/>
			<g>
				<path class="st1" d="M9.58,31.91h0.36c0.4,0,0.56-0.22,0.56-0.45c0-0.23-0.12-0.44-0.56-0.44H9.58V31.91z M9.58,30.51H9.9
					c0.41,0,0.49-0.25,0.49-0.39c0-0.09-0.02-0.4-0.52-0.4H9.58V30.51z M9.98,29.22c0.62,0,1.06,0.26,1.06,0.79
					c0,0.48-0.29,0.66-0.52,0.73v0.01c0.41,0.06,0.67,0.35,0.67,0.76c0,0.4-0.23,0.9-1.25,0.9H8.94v-3.18H9.98z"/>
			</g>
			<polygon class="st1" points="14.92,29.22 14.92,29.79 14,29.79 14,32.4 13.36,32.4 13.36,29.79 12.44,29.79 12.44,29.22 			"/>
			<g>
				<path class="st1" d="M16.79,30.82c0,1.07,0.64,1.17,0.88,1.17c0.24,0,0.88-0.1,0.88-1.17c0-1.08-0.63-1.17-0.88-1.17
					C17.42,29.64,16.79,29.74,16.79,30.82 M19.22,30.82c0,1.16-0.77,1.63-1.56,1.63c-0.79,0-1.56-0.47-1.56-1.63
					c0-1.15,0.77-1.63,1.56-1.63C18.45,29.19,19.22,29.66,19.22,30.82"/>
			</g>
			<polygon class="st1" points="22.22,32.4 21.45,30.13 21.31,29.68 21.29,29.68 21.3,30.17 21.3,32.4 20.65,32.4 20.65,29.22 
				21.75,29.22 22.38,31.07 22.52,31.63 22.53,31.63 22.67,31.07 23.31,29.22 24.4,29.22 24.4,32.4 23.76,32.4 23.76,30.17 
				23.77,29.68 23.75,29.68 23.61,30.13 22.83,32.4 			"/>
			<g>
				<path class="st1" d="M26.52,30.82c0,1.07,0.64,1.17,0.88,1.17c0.23,0,0.87-0.1,0.87-1.17c0-1.08-0.64-1.17-0.87-1.17
					C27.15,29.64,26.52,29.74,26.52,30.82 M28.95,30.82c0,1.16-0.77,1.63-1.55,1.63c-0.79,0-1.56-0.47-1.56-1.63
					c0-1.15,0.77-1.63,1.56-1.63C28.18,29.19,28.95,29.66,28.95,30.82"/>
				<path class="st1" d="M31.03,31.91h0.4c0.36,0,0.57-0.16,0.57-0.48c0-0.32-0.21-0.48-0.57-0.48h-0.4V31.91z M32.42,29.22v0.57
					h-1.39v0.66h0.52c0.93,0,1.13,0.62,1.13,1.02c0,0.34-0.22,0.93-1.13,0.93h-1.17v-3.18H32.42z"/>
			</g>
			<polygon class="st1" points="34.82,29.22 34.82,30.86 34.81,31.63 34.82,31.63 35.05,31.17 36.16,29.22 36.94,29.22 36.94,32.4 
				36.29,32.4 36.29,30.76 36.3,30 36.29,30 36.08,30.48 34.95,32.4 34.18,32.4 34.18,29.22 			"/>
			<g>
				<path class="st1" d="M40.93,29.22v3.18h-0.65v-2.62h-0.84v0.64c0,1.07,0.01,2.02-0.93,2.02c-0.1,0-0.22-0.02-0.3-0.04l0.03-0.5
					c0.04,0.01,0.12,0.02,0.17,0.02c0.5,0,0.43-0.91,0.43-1.66v-1.04H40.93z"/>
				<path class="st1" d="M43.13,31.91h0.42c0.3,0,0.53-0.19,0.53-0.5c0-0.2-0.1-0.49-0.58-0.49h-0.37V31.91z M43.13,30.41h0.44
					c1.1,0,1.18,0.76,1.18,0.96c0,0.49-0.28,1.03-1.19,1.03h-1.07v-3.18h0.65V30.41z"/>
			</g>
			<polygon class="st1" points="46.82,29.22 46.82,30.51 48.11,30.51 48.11,29.22 48.75,29.22 48.75,32.4 48.11,32.4 48.11,31.03 
				46.82,31.03 46.82,32.4 46.17,32.4 46.17,29.22 			"/>
			<g>
				<path class="st1" d="M50.87,30.82c0,1.07,0.64,1.17,0.88,1.17c0.24,0,0.88-0.1,0.88-1.17c0-1.08-0.64-1.17-0.88-1.17
					C51.5,29.64,50.87,29.74,50.87,30.82 M53.3,30.82c0,1.16-0.77,1.63-1.56,1.63c-0.79,0-1.56-0.47-1.56-1.63
					c0-1.15,0.77-1.63,1.56-1.63C52.53,29.19,53.3,29.66,53.3,30.82"/>
			</g>
			<polygon class="st1" points="56.63,29.22 56.63,29.79 55.38,29.79 55.38,30.51 56.52,30.51 56.52,31.03 55.38,31.03 55.38,31.85 
				56.63,31.85 56.63,32.4 54.74,32.4 54.74,29.22 			"/>
		</g>
		<g>
			<polygon class="st1" points="8.96,34.57 8.96,35.13 8.04,35.13 8.04,37.75 7.4,37.75 7.4,35.13 6.48,35.13 6.48,34.57 			"/>
			<g>
				<path class="st1" d="M10.82,36.16c0,1.08,0.64,1.17,0.88,1.17c0.24,0,0.88-0.1,0.88-1.17c0-1.08-0.63-1.17-0.88-1.17
					C11.46,34.99,10.82,35.08,10.82,36.16 M13.26,36.16c0,1.16-0.77,1.63-1.56,1.63c-0.78,0-1.56-0.47-1.56-1.63
					c0-1.15,0.78-1.63,1.56-1.63C12.49,34.53,13.26,35.01,13.26,36.16"/>
				<path class="st1" d="M15.34,37.25h0.36c0.4,0,0.57-0.22,0.57-0.45c0-0.22-0.12-0.44-0.57-0.44h-0.36V37.25z M15.34,35.86h0.31
					c0.42,0,0.5-0.25,0.5-0.39c0-0.09-0.02-0.39-0.52-0.39h-0.29V35.86z M15.74,34.57c0.62,0,1.05,0.25,1.05,0.78
					c0,0.48-0.29,0.67-0.52,0.73v0.01c0.41,0.06,0.67,0.36,0.67,0.76c0,0.4-0.23,0.9-1.25,0.9h-1v-3.18H15.74z"/>
			</g>
			<path class="st1" d="M20.28,36.51l-0.46-1.3H19.8l-0.44,1.3H20.28z M20.2,34.57l1.27,3.18h-0.73l-0.27-0.72h-1.31l-0.27,0.72
				H18.2l1.27-3.18H20.2z"/>
			<g>
				<path class="st1" d="M23.7,36.05c0.39,0,0.54-0.27,0.54-0.5c0-0.27-0.16-0.48-0.54-0.48h-0.3v0.98H23.7z M23.7,34.57
					c1.15,0,1.22,0.79,1.22,0.99c0,0.42-0.29,0.99-1.11,0.99H23.4v1.2h-0.64v-3.18H23.7z"/>
			</g>
			<polygon class="st1" points="26.97,34.57 26.97,36.2 26.96,36.98 26.97,36.98 27.21,36.52 28.31,34.57 29.09,34.57 29.09,37.75 
				28.44,37.75 28.44,36.11 28.46,35.34 28.44,35.34 28.22,35.82 27.1,37.75 26.33,37.75 26.33,34.57 			"/>
			<polygon class="st1" points="31.28,34.57 31.28,37.19 32.35,37.19 32.35,34.57 33,34.57 33,37.19 34.07,37.19 34.07,34.57 
				34.71,34.57 34.71,37.19 35.07,37.19 35.07,38.43 34.47,38.43 34.47,37.75 30.63,37.75 30.63,34.57 			"/>
			<polygon class="st1" points="38.29,34.57 38.29,35.13 37.04,35.13 37.04,35.86 38.18,35.86 38.18,36.37 37.04,36.37 37.04,37.19 
				38.29,37.19 38.29,37.75 36.39,37.75 36.39,34.57 			"/>
			<g>
				<path class="st1" d="M42.11,37.65c-0.28,0.1-0.56,0.14-0.82,0.14c-0.79,0-1.66-0.45-1.66-1.61c0-1.1,0.77-1.65,1.77-1.65
					c0.25,0,0.47,0.03,0.71,0.11l-0.03,0.54c-0.19-0.07-0.39-0.12-0.63-0.12c-0.71,0-1.14,0.45-1.14,1.1c0,0.77,0.52,1.08,1.09,1.08
					c0.28,0,0.51-0.07,0.66-0.14L42.11,37.65z"/>
			</g>
			<polygon class="st1" points="45.75,34.57 45.75,35.13 44.83,35.13 44.83,37.75 44.19,37.75 44.19,35.13 43.27,35.13 43.27,34.57 
							"/>
			<path class="st1" d="M47.69,37.25h0.36c0.4,0,0.57-0.22,0.57-0.45c0-0.22-0.12-0.44-0.57-0.44h-0.36V37.25z M47.69,35.86H48
				c0.42,0,0.49-0.25,0.49-0.39c0-0.09-0.02-0.39-0.52-0.39h-0.29V35.86z M48.09,34.57c0.62,0,1.06,0.25,1.06,0.78
				c0,0.48-0.29,0.67-0.52,0.73v0.01c0.41,0.06,0.66,0.36,0.66,0.76c0,0.4-0.23,0.9-1.25,0.9h-1.01v-3.18H48.09z"/>
			<path class="st1" d="M51.37,36.16c0,1.08,0.63,1.17,0.88,1.17c0.24,0,0.88-0.1,0.88-1.17c0-1.08-0.64-1.17-0.88-1.17
				C52,34.99,51.37,35.08,51.37,36.16 M53.8,36.16c0,1.16-0.78,1.63-1.56,1.63c-0.79,0-1.56-0.47-1.56-1.63
				c0-1.15,0.77-1.63,1.56-1.63C53.03,34.53,53.8,35.01,53.8,36.16"/>
		</g>
	</g>
	<g>
		<path class="st1" d="M3.83,45.22v0.49c0,1.18-0.52,1.69-1.64,1.69c-1.12,0-1.64-0.51-1.64-1.7v-2.26c0-0.82,0.49-1.47,1.64-1.47
			c1.13,0,1.64,0.67,1.64,1.48v0.35H2.62v-0.47c0-0.28-0.25-0.4-0.44-0.4c-0.2,0-0.41,0.11-0.41,0.38v2.59
			c0,0.39,0.16,0.55,0.41,0.55c0.26,0,0.44-0.14,0.44-0.54v-0.69H3.83z"/>
		<path class="st1" d="M4.48,47.27h1.69c1.03,0,1.54-0.56,1.54-1.53c0-0.72-0.27-1.06-0.74-1.26c0.26-0.06,0.69-0.39,0.69-1.1
			c0-0.93-0.65-1.3-1.24-1.3H4.48V47.27z M5.65,45.01h0.3c0.43,0,0.56,0.24,0.56,0.67c0,0.47-0.13,0.65-0.59,0.65H5.65V45.01z
			 M5.65,43.01H6c0.34,0,0.48,0.18,0.48,0.48c0,0.41-0.13,0.58-0.48,0.58H5.65V43.01z"/>
		<path class="st1" d="M9.94,41.96c-1.15,0-1.64,0.64-1.64,1.46v2.34c0,1.03,0.51,1.63,1.63,1.63c1.14,0,1.63-0.6,1.63-1.63v-2.33
			C11.56,42.62,11.08,41.96,9.94,41.96 M9.93,42.92c0.2,0,0.42,0.13,0.42,0.43v2.63c0,0.31-0.22,0.46-0.42,0.46
			c-0.21,0-0.42-0.15-0.42-0.46v-2.63C9.51,43.05,9.72,42.92,9.93,42.92"/>
		<path class="st1" d="M13.37,42.08v1.29c0,0.57-0.15,1.4-0.18,1.97h0.01l1.02-3.26h1.16v5.19h-1.16v-1.21
			c0-0.56,0.17-1.4,0.22-1.96h-0.01l-1.04,3.16h-1.18v-5.19H13.37z"/>
		<polygon class="st1" points="17.01,42.08 17.59,43.6 18.17,42.08 19.34,42.08 18.27,44.64 19.39,47.27 18.11,47.27 17.59,45.69 
			16.96,47.27 15.78,47.27 16.9,44.64 15.83,42.08 		"/>
		<polygon class="st1" points="22.73,44.04 23.52,44.04 23.52,42.04 24.74,42.04 24.74,47.23 23.52,47.23 23.52,45.02 22.73,45.02 
			22.73,47.23 21.52,47.23 21.52,42.04 22.73,42.04 		"/>
		<polygon class="st1" points="25.44,42.04 28.25,42.04 28.25,43.02 26.65,43.02 26.65,44.04 28.09,44.04 28.09,45.02 26.65,45.02 
			26.65,46.24 28.25,46.24 28.25,47.23 25.44,47.23 		"/>
		<g>
			<path class="st1" d="M30.62,42.04v5.19h1.76c0.7,0,1.47-0.26,1.47-1.58c0-1.28-0.76-1.61-1.47-1.61h-0.55v-1.07h1.53v-0.93H30.62
				z M31.83,44.97h0.23c0.3,0,0.58,0.17,0.58,0.69c0,0.52-0.24,0.64-0.6,0.64h-0.21V44.97z"/>
			<path class="st1" d="M35.71,45.2h0.55c0.72,0,1.47-0.3,1.47-1.58c0-1.32-0.77-1.58-1.47-1.58H34.5v5.19h1.21V45.2z M35.71,42.97
				h0.2c0.35,0,0.61,0.12,0.61,0.63c0,0.52-0.29,0.67-0.59,0.67h-0.22V42.97z"/>
			<path class="st1" d="M39.97,41.92c-1.14,0-1.64,0.64-1.64,1.46v2.33c0,1.03,0.51,1.63,1.63,1.63c1.14,0,1.63-0.6,1.63-1.63v-2.33
				C41.59,42.58,41.11,41.92,39.97,41.92 M39.96,42.87c0.2,0,0.42,0.13,0.42,0.43v2.63c0,0.31-0.22,0.47-0.42,0.47
				c-0.21,0-0.42-0.15-0.42-0.47V43.3C39.54,43,39.75,42.87,39.96,42.87"/>
			<path class="st1" d="M45.47,45.17v0.48c0,1.18-0.52,1.69-1.64,1.69c-1.11,0-1.64-0.5-1.64-1.7v-2.26c0-0.82,0.49-1.47,1.64-1.47
				c1.14,0,1.64,0.66,1.64,1.48v0.35h-1.21v-0.47c0-0.28-0.25-0.41-0.44-0.41c-0.2,0-0.41,0.12-0.41,0.38v2.59
				c0,0.39,0.16,0.55,0.41,0.55c0.26,0,0.44-0.15,0.44-0.54v-0.69H45.47z"/>
		</g>
		<path class="st1" d="M46.9,42.04l-1.1,5.19h1.21l0.16-1.04h0.93l0.18,1.04h1.19l-1.12-5.19H46.9z M47.28,45.25l0.32-2.29h0.01
			l0.32,2.29H47.28z"/>
		<polygon class="st1" points="49.85,42.04 52.67,42.04 52.67,43.02 51.06,43.02 51.06,44.04 52.5,44.04 52.5,45.02 51.06,45.02 
			51.06,46.24 52.67,46.24 52.67,47.23 49.85,47.23 		"/>
		<g>
			<path class="st1" d="M54.88,42.04l0.39,2.1c0.09,0.43,0.13,1.15,0.18,1.64h0.01c0.05-0.47,0.12-1.27,0.18-1.64l0.39-2.1h1.69
				v5.19h-1.16v-1.82c0-0.5,0.04-1.83,0.07-2.26h-0.01l-0.75,4.08h-0.84l-0.75-4.08h-0.01c0.02,0.36,0.06,1.55,0.06,2.25v1.83h-1.16
				v-5.19H54.88z"/>
		</g>
		<path class="st1" d="M59.73,41.98v1.25l-0.25,2.31h-0.59l-0.26-2.31v-1.25H59.73z M58.63,46.02h1.1v1.21h-1.1V46.02z"/>
	</g>
</g>
</svg>
