<svg width="201" height="44" viewBox="0 0 201 44" fill="none" xmlns="http://www.w3.org/2000/svg">
<g clip-path="url(#clip0_1_4535)">
<path d="M44 0H0V44H44V0Z" fill="#FF0032"/>
<path d="M29.3125 3.38391V5.40887H33.7404V13.5357H36.2153V5.40887H40.6342V3.38391H29.3125Z" fill="white"/>
<path d="M13.3916 3.38391L10.1516 10.0978L6.92071 3.38391H3.38379V13.5357H5.86773V6.27285L9.02666 12.4107H11.2856L14.4445 6.27285V13.5357H16.9195V3.38391H13.3916Z" fill="white"/>
<path d="M38.1591 37.2321C38.0961 37.6371 37.9341 37.9701 37.6731 38.2221C37.4301 38.4561 37.0971 38.6271 36.6831 38.7261C36.2781 38.8161 35.6751 38.8701 35.0452 38.8701C34.3882 38.8701 33.8122 38.7891 33.3172 38.6181C32.8402 38.4561 32.4622 38.1681 32.2012 37.7721C31.9312 37.3761 31.7962 36.8001 31.7962 36.0531V35.0181C31.7962 34.2802 31.9312 33.7042 32.2012 33.2992C32.4712 32.9032 32.8402 32.6152 33.3172 32.4532C33.8032 32.2822 34.3882 32.2012 35.0452 32.2012C35.6751 32.2012 36.2781 32.2552 36.6831 32.3452C37.0971 32.4442 37.4301 32.6062 37.6731 32.8492C37.9341 33.1012 38.0961 33.4342 38.1591 33.8392H40.634C40.562 33.0022 40.283 32.2912 39.7881 31.7152C39.3381 31.1932 38.7081 30.8152 37.9251 30.5812C37.1691 30.3563 36.1701 30.2393 35.0452 30.2393C33.8572 30.2393 32.8312 30.4103 31.9852 30.7432C31.1302 31.0852 30.4643 31.6522 30.0053 32.4352C29.5643 33.1822 29.3393 34.1902 29.3213 35.4141V35.5311L29.4563 35.5401L29.3213 35.5491V35.5581V35.6661C29.3393 36.8901 29.5643 37.8981 30.0053 38.6451C30.4643 39.428 31.1302 39.995 31.9852 40.337C32.8312 40.67 33.8572 40.841 35.0452 40.841C36.1701 40.841 37.1691 40.724 37.9251 40.499C38.7081 40.265 39.3291 39.887 39.7881 39.3651C40.283 38.7981 40.571 38.0781 40.634 37.2411H38.1591V37.2321Z" fill="white"/>
<path d="M54.2637 38.492H56.0017C56.1777 38.2134 56.3463 37.8687 56.5077 37.458C56.6837 37.0474 56.8303 36.556 56.9477 35.984C57.0797 35.412 57.1823 34.7447 57.2557 33.982C57.329 33.2194 57.3657 32.354 57.3657 31.386V25.82H71.0717V38.492H73.1177V44.3H70.2577V41H57.1237V44.3H54.2637V38.492ZM60.2257 28.328V31.386C60.2257 33.3367 60.1083 34.8767 59.8737 36.006C59.6537 37.1207 59.3897 37.9494 59.0817 38.492H67.9917V28.328H60.2257Z" fill="black"/>
<path d="M75.4289 38.294C75.9569 38.294 76.3749 38.184 76.6829 37.964C77.0056 37.744 77.2476 37.392 77.4089 36.908C77.5849 36.424 77.7022 35.7934 77.7609 35.016C77.8196 34.2387 77.8489 33.3 77.8489 32.2V25.82H91.0489V41H87.9689V28.328H80.7089V32.2C80.7089 33.828 80.6429 35.1994 80.5109 36.314C80.3789 37.4287 80.1369 38.338 79.7849 39.042C79.4329 39.7314 78.9416 40.23 78.3109 40.538C77.6802 40.846 76.8662 41 75.8689 41H74.9669V38.294H75.4289Z" fill="black"/>
<path d="M101.447 35.346L97.9492 41H94.6052L98.2792 35.126C96.0499 34.598 94.9352 33.0874 94.9352 30.594C94.9352 29.1127 95.3679 27.9467 96.2332 27.096C97.1132 26.2454 98.4405 25.82 100.215 25.82H109.697V41H106.617V35.346H101.447ZM100.699 28.196C99.8045 28.196 99.1372 28.3794 98.6972 28.746C98.2572 29.1127 98.0372 29.6334 98.0372 30.308V30.88C98.0372 31.54 98.2572 32.0607 98.6972 32.442C99.1372 32.8087 99.8045 32.992 100.699 32.992H106.617V28.196H100.699Z" fill="black"/>
<path d="M118.484 38.492H120.222C120.398 38.2134 120.567 37.8687 120.728 37.458C120.904 37.0474 121.051 36.556 121.168 35.984C121.3 35.412 121.403 34.7447 121.476 33.982C121.55 33.2194 121.586 32.354 121.586 31.386V25.82H135.292V38.492H137.338V44.3H134.478V41H121.344V44.3H118.484V38.492ZM124.446 28.328V31.386C124.446 33.3367 124.329 34.8767 124.094 36.006C123.874 37.1207 123.61 37.9494 123.302 38.492H132.212V28.328H124.446Z" fill="black"/>
<path d="M154.505 32.596C154.505 30.924 154.007 29.736 153.009 29.032C152.027 28.3134 150.56 27.954 148.609 27.954C146.644 27.954 145.17 28.3134 144.187 29.032C143.205 29.736 142.713 30.924 142.713 32.596V34.158C142.713 35.0087 142.831 35.7347 143.065 36.336C143.315 36.9227 143.681 37.4067 144.165 37.788C144.664 38.1547 145.28 38.426 146.013 38.602C146.761 38.778 147.627 38.866 148.609 38.866C150.56 38.866 152.027 38.5067 153.009 37.788C154.007 37.0694 154.505 35.8594 154.505 34.158V32.596ZM139.611 33.344C139.611 31.9067 139.802 30.6967 140.183 29.714C140.579 28.7167 141.151 27.91 141.899 27.294C142.662 26.678 143.601 26.238 144.715 25.974C145.845 25.6954 147.143 25.556 148.609 25.556C150.076 25.556 151.367 25.6954 152.481 25.974C153.611 26.238 154.549 26.678 155.297 27.294C156.06 27.91 156.632 28.7167 157.013 29.714C157.409 30.6967 157.607 31.9067 157.607 33.344C157.607 34.8107 157.409 36.05 157.013 37.062C156.632 38.0594 156.06 38.8734 155.297 39.504C154.549 40.12 153.611 40.5674 152.481 40.846C151.367 41.1247 150.076 41.264 148.609 41.264C147.143 41.264 145.845 41.1247 144.715 40.846C143.601 40.5674 142.662 40.12 141.899 39.504C141.151 38.8734 140.579 38.0594 140.183 37.062C139.802 36.05 139.611 34.8107 139.611 33.344Z" fill="black"/>
<path d="M164.155 28.394V41H161.339V25.82H166.135L170.777 38.25L175.463 25.82H180.105V41H177.047V28.328L172.251 41H168.929L164.155 28.394Z" fill="black"/>
<path d="M193.86 25.82L200.548 41H197.336L195.642 37.106H187.524L185.83 41H182.926L189.636 25.82H193.86ZM188.514 34.84H194.652L191.572 27.822L188.514 34.84Z" fill="black"/>
<path d="M65.2858 2.81995C67.0605 2.81995 68.3585 3.25261 69.1798 4.11795C70.0158 4.96861 70.4338 6.17128 70.4338 7.72595C70.4338 9.29528 70.0158 10.5126 69.1798 11.3779C68.3585 12.2433 67.0605 12.6759 65.2858 12.6759H58.7958V17.9999H55.7158V2.81995H65.2858ZM67.3318 7.43995C67.3318 6.77995 67.1412 6.24461 66.7598 5.83395C66.3785 5.42328 65.7478 5.21795 64.8678 5.21795H58.7958V10.2779H64.8678C65.7478 10.2779 66.3785 10.0799 66.7598 9.68395C67.1412 9.27328 67.3318 8.73795 67.3318 8.07795V7.43995Z" fill="black"/>
<path d="M86.8414 2.81995V5.21795H76.8974V9.08995H84.5534V11.3999H76.8974V15.6019H86.9294V17.9999H73.8174V2.81995H86.8414Z" fill="black"/>
<path d="M93.6454 2.81995V15.4919H99.9594V2.81995H103.039V15.4919H109.353V2.81995H112.433V17.9999H90.5654V2.81995H93.6454Z" fill="black"/>
<path d="M129.898 2.81995V5.21795H119.954V9.08995H127.61V11.3999H119.954V15.6019H129.986V17.9999H116.874V2.81995H129.898Z" fill="black"/>
<path d="M136.702 2.81995V8.95795H145.7V2.81995H148.78V17.9999H145.7V11.4659H136.702V17.9999H133.622V2.81995H136.702Z" fill="black"/>
<path d="M156.507 17.9999H153.185V2.81995H156.265V14.2159L165.351 2.81995H168.651V17.9999H165.593V6.60395L156.507 17.9999Z" fill="black"/>
<path d="M179.053 12.3459L175.555 17.9999H172.211L175.885 12.1259C173.655 11.5979 172.541 10.0873 172.541 7.59395C172.541 6.11261 172.973 4.94661 173.839 4.09595C174.719 3.24528 176.046 2.81995 177.821 2.81995H187.303V17.9999H184.223V12.3459H179.053ZM178.305 5.19595C177.41 5.19595 176.743 5.37928 176.303 5.74595C175.863 6.11261 175.643 6.63328 175.643 7.30795V7.87995C175.643 8.53995 175.863 9.06061 176.303 9.44195C176.743 9.80861 177.41 9.99195 178.305 9.99195H184.223V5.19595H178.305Z" fill="black"/>
</g>
<defs>
<clipPath id="clip0_1_4535">
<rect width="200.75" height="44" fill="white"/>
</clipPath>
</defs>
</svg>
