<svg width="219" height="79" viewBox="0 0 219 79" fill="none" xmlns="http://www.w3.org/2000/svg">
<g clip-path="url(#clip0_3543_3176)">
<path fill-rule="evenodd" clip-rule="evenodd" d="M14.8676 0.0238647L11.1484 10.228H62.6885L66.4077 0.0238647H14.8676ZM9.28761 15.3277L5.56839 25.5295H57.1085L60.8277 15.3277H9.28761ZM3.71922 30.6316L0 40.8334H51.5401L55.257 30.6316H3.71922Z" fill="#00AAFF"/>
<path fill-rule="evenodd" clip-rule="evenodd" d="M109.571 44.7217V44.937C111.926 45.8029 114.176 47.3171 115.355 48.2895C118.997 51.3179 120.605 55.3187 120.605 60.5096C120.605 69.0553 116.105 75.2186 108.713 77.1658C106.463 77.814 104.108 78.0317 99.7134 78.0317H77.3265V15.5237H97.1447C101.216 15.5237 104 15.739 106.463 16.3872C113.642 18.3344 118.355 23.31 118.355 31.2027C118.355 35.4212 116.855 38.9914 114.392 41.3692C113.321 42.4504 111.821 43.7493 109.571 44.7217ZM89.7527 51.3179V67.7564H98.3236C100.892 67.7564 103.25 67.5411 104.966 65.9181C106.679 64.2951 107.429 62.2414 107.429 59.5372C107.429 57.4835 106.892 55.5364 105.821 54.131C104 51.8597 101.75 51.3179 97.8947 51.3179H89.7527ZM89.6449 40.5032H96.608C98.7501 40.5032 99.8212 40.5032 100.892 40.1791C103.787 39.3132 105.608 36.7201 105.608 33.1499C105.608 28.9338 103.679 27.0931 100.892 26.2295C99.7134 25.9054 98.5369 25.7966 96.1791 25.7966H89.6449V40.5032ZM139.244 78.0317V26.0119H121.355V15.5237H171.062L167.528 26.0119H151.671V78.0317H139.244ZM174.917 78.0317V15.5237H215.198L211.664 26.0119H187.238V39.855H197.201C205.235 39.855 209.414 41.8021 212.306 44.2887C214.556 46.2359 218.412 50.5608 218.412 59.1066C218.412 67.5411 214.448 72.1902 211.127 74.5703C207.272 77.2722 203.201 78.0317 194.951 78.0317H174.917ZM187.238 67.5411H196.559C200.093 67.5411 202.235 66.6752 203.735 64.728C204.485 63.7556 205.556 62.0238 205.556 58.7801C205.556 55.5364 204.485 53.2651 202.343 51.642C201.059 50.6696 199.343 50.1302 196.451 50.1302H187.238V67.5411Z" fill="#0A2896"/>
</g>
<defs>
<clipPath id="clip0_3543_3176">
<rect width="218.4" height="78" fill="white" transform="translate(0 0.0238647)"/>
</clipPath>
</defs>
</svg>
